#!OML:ASF H:\Male1\Project 1\Capture day 1\Session 1\Male1.ASF
:FULLY-SPECIFIED
:DEGREES
188
root 9.77033 16.9366 -0.42615 178.988 -159.658 -176.38
lowerback 12.9566 4.05895 6.11887
upperback 3.08476 6.14375 -0.0250404
thorax -3.32907 3.00196 -4.37762
lowerneck -1.22517 15.8768 19.065
upperneck -4.22313 21.6731 -26.8278
head 4.28382 10.7705 -9.65432
rclavicle 3.77691e-014 -1.19271e-014
rhumerus -55.2225 9.9109 -84.7376
rradius 64.4965
rwrist -33.9856
rhand -41.7082 2.98206
rfingers 7.12502
rthumb -14.614 -26.483
lclavicle 3.77691e-014 -1.19271e-014
lhumerus -58.6054 -16.4531 81.6181
lradius 70.0568
lwrist 17.1408
lhand -29.0309 20.8833
lfingers 7.12502
lthumb -2.38157 50.8498
rfemur -16.3378 0.924038 19.3263
rtibia 44.6423
rfoot -18.8725 -31.8585
rtoes 4.54463
lfemur -18.9487 -22.641 -27.8205
ltibia 32.9274
lfoot 5.25467 -6.29152
ltoes -10.9447
189
root 9.7403 17.2378 -0.404615 179.084 -166.488 -176.779
lowerback 12.4312 3.44549 6.13445
upperback 2.78565 5.32246 -0.0658948
thorax -3.44662 2.58897 -4.29384
lowerneck -0.415491 15.5461 20.0459
upperneck -4.20473 21.4314 -27.8691
head 4.36795 10.7133 -10.254
rclavicle -2.34566e-014 1.59028e-014
rhumerus -57.5095 8.36349 -84.8447
rradius 64.4104
rwrist -33.6795
rhand -42.393 4.51996
rfingers 7.12502
rthumb -15.2738 -24.8961
lclavicle -2.34566e-014 1.59028e-014
lhumerus -56.356 -17.3386 81.2082
lradius 69.5923
lwrist 18.7669
lhand -27.1397 20.4124
lfingers 7.12502
lthumb -0.555004 50.3914
rfemur -16.6527 1.94089 20.8974
rtibia 43.9548
rfoot -16.1993 -29.9818
rtoes -9.96842
lfemur -17.5233 -21.0696 -28.4646
ltibia 33.2376
lfoot 0.734102 -3.18251
ltoes -22.4602
190
root 9.70843 17.5206 -0.385101 179.041 -173.356 -177.033
lowerback 12.0738 2.82231 5.92621
upperback 2.73015 4.456 -0.149116
thorax -3.41809 2.1651 -4.12914
lowerneck -0.445902 15.2944 19.1945
upperneck -4.09355 21.0578 -27.4289
head 4.15476 10.5362 -10.0584
rclavicle -2.28602e-014 -2.38542e-015
rhumerus -59.1826 6.84179 -84.8859
rradius 63.8876
rwrist -33.4548
rhand -42.6356 4.22947
rfingers 7.12502
rthumb -15.5074 -25.1687
lclavicle -2.28602e-014 -2.38542e-015
lhumerus -53.5689 -18.3308 81.1267
lradius 68.9657
lwrist 19.1722
lhand -27.7163 21.3053
lfingers 7.12502
lthumb -1.11187 51.2822
rfemur -17.2425 3.4652 22.0737
rtibia 43.362
rfoot -18.5964 -27.3515
rtoes -19.7657
lfemur -16.1804 -20.2474 -28.781
ltibia 33.9398
lfoot -2.81244 -0.0366564
ltoes -21.2093
191
root 9.66468 17.766 -0.361299 178.777 -180.169 -177.508
lowerback 12.0467 2.16493 5.58026
upperback 2.78064 3.55072 -0.0775817
thorax -3.47749 1.72111 -3.73799
lowerneck -0.654258 15.2589 18.0113
upperneck -4.29778 20.8648 -26.4588
head 3.81416 10.4438 -9.59724
rclavicle -3.49861e-014 9.54166e-015
rhumerus -60.7157 5.45324 -84.7668
rradius 62.8157
rwrist -34.4766
rhand -42.656 6.22139
rfingers 7.12502
rthumb -15.527 -23.1752
lclavicle -3.49861e-014 9.54166e-015
lhumerus -50.574 -19.0067 80.9705
lradius 68.0456
lwrist 18.0049
lhand -27.3599 20.9559
lfingers 7.12502
lthumb -0.767709 50.9343
rfemur -17.8805 4.9846 23.1362
rtibia 42.8659
rfoot -19.5878 -23.8589
rtoes -9.95347
lfemur -14.8 -20.0895 -28.4848
ltibia 34.6566
lfoot -4.88789 3.02424
ltoes -11.0746
192
root 9.61607 17.9762 -0.324841 178.872 -186.779 -177.634
lowerback 11.7414 1.69363 4.78705
upperback 2.73802 2.81761 -0.172737
thorax -3.46519 1.36618 -3.27969
lowerneck -1.65429 14.9564 17.8899
upperneck -3.16982 20.4784 -26.0061
head 4.14624 10.1486 -9.40112
rclavicle -2.76311e-014 7.95139e-016
rhumerus -62.2855 4.40239 -85.1168
rradius 61.5556
rwrist -35.7247
rhand -42.0094 3.41699
rfingers 7.12502
rthumb -14.9042 -26.0268
lclavicle -2.76311e-014 7.95139e-016
lhumerus -47.6473 -19.8395 80.7524
lradius 67.128
lwrist 15.6189
lhand -26.9349 20.5062
lfingers 7.12502
lthumb -0.357261 50.4856
rfemur -19.0405 6.39048 23.3448
rtibia 42.4445
rfoot -13.6791 -23.5846
rtoes -24.7644
lfemur -14.0718 -19.3037 -28.0337
ltibia 34.8876
lfoot -4.60544 5.05085
ltoes -9.54369
193
root 9.57247 18.1205 -0.273872 178.765 -193.347 -177.165
lowerback 11.74 1.04427 3.4327
upperback 2.82969 1.79521 -0.304528
thorax -3.49987 0.872494 -2.51177
lowerneck -2.33482 14.5866 17.3099
upperneck -2.44857 19.9862 -25.6585
head 4.25437 9.84388 -9.22853
rclavicle 3.60794e-014 -1.66979e-014
rhumerus -63.8176 4.76798 -86.0418
rradius 60.3343
rwrist -37.0275
rhand -41.655 1.35457
rfingers 7.12502
rthumb -14.5628 -28.1142
lclavicle 3.60794e-014 -1.66979e-014
lhumerus -45.2053 -19.7719 80.5045
lradius 66.6487
lwrist 13.2916
lhand -26.403 20.2363
lfingers 7.12502
lthumb 0.156472 50.216
rfemur -19.8445 7.16937 22.6845
rtibia 42.2401
rfoot -13.3419 -23.0497
rtoes -22.5718
lfemur -12.997 -18.8368 -28.1192
ltibia 34.6013
lfoot -3.54349 6.9013
ltoes -10.6584
194
root 9.55355 18.2443 -0.203879 179.039 -199.709 -176.385
lowerback 11.4501 0.831224 2.48061
upperback 3.05477 1.37101 -0.990717
thorax -3.14068 0.680634 -2.62039
lowerneck -3.95339 14.0563 16.7049
upperneck -1.21945 19.1382 -24.2223
head 4.45705 9.28948 -8.68527
rclavicle -1.37161e-014 -5.96354e-015
rhumerus -65.1801 3.66665 -87.3148
rradius 59.1301
rwrist -37.8134
rhand -41.3594 1.23064
rfingers 7.12502
rthumb -14.278 -28.2585
lclavicle -1.37161e-014 -5.96354e-015
lhumerus -42.5435 -21.2038 79.9289
lradius 66.6727
lwrist 12.1934
lhand -26.1015 19.9959
lfingers 7.12502
lthumb 0.447737 49.9751
rfemur -20.6473 7.17187 21.4457
rtibia 41.9827
rfoot -12.4616 -22.7413
rtoes -23.7075
lfemur -12.0657 -18.5198 -28.2498
ltibia 33.9048
lfoot -3.5653 8.15593
ltoes -6.10736
195
root 9.55869 18.3108 -0.111464 179.12 -205.689 -175.535
lowerback 11.3883 0.618661 1.45096
upperback 3.346 0.963165 -1.50164
thorax -2.83814 0.493869 -2.51092
lowerneck -4.79762 13.7312 15.1656
upperneck -0.363705 18.5953 -22.0103
head 4.31737 8.97051 -7.77357
rclavicle -4.78077e-014 1.43125e-014
rhumerus -66.6989 3.16574 -88.3423
rradius 58.2097
rwrist -36.9569
rhand -41.0647 0.436243
rfingers 7.12502
rthumb -13.994 -29.0727
lclavicle -4.78077e-014 1.43125e-014
lhumerus -40.7866 -22.0245 79.585
lradius 67.3461
lwrist 11.8835
lhand -25.8103 19.5758
lfingers 7.12502
lthumb 0.728947 49.5543
rfemur -20.8768 7.21371 20.0025
rtibia 41.634
rfoot -11.3085 -22.644
rtoes -25.8281
lfemur -10.8061 -18.3273 -28.5117
ltibia 33.0504
lfoot -4.3094 9.33276
ltoes -11.3514
196
root 9.5492 18.3405 -0.0203815 179.071 -211.583 -175.348
lowerback 11.6227 0.458464 0.756518
upperback 3.5328 0.677911 -1.74003
thorax -2.79283 0.36052 -2.33052
lowerneck -5.74934 13.259 14.0397
upperneck 0.631439 17.8866 -20.1689
head 4.32444 8.56655 -7.06321
rclavicle 2.76808e-014 -2.5842e-015
rhumerus -68.2618 2.72655 -89.423
rradius 57.541
rwrist -36.2395
rhand -41.6852 0.838297
rfingers 7.12502
rthumb -14.5919 -28.6284
lclavicle 2.76808e-014 -2.5842e-015
lhumerus -39.5924 -22.9643 79.2116
lradius 68.6571
lwrist 11.8997
lhand -24.8577 18.3778
lfingers 7.12502
lthumb 1.64897 48.3511
rfemur -20.5511 8.06616 19.0083
rtibia 40.9662
rfoot -13.8834 -20.9722
rtoes -13.7906
lfemur -10.0011 -18.1663 -27.7061
ltibia 32.2857
lfoot -4.96756 9.04547
ltoes -14.0042
197
root 9.54385 18.3178 0.0769399 178.967 -216.784 -175.936
lowerback 11.6302 0.379645 0.215652
upperback 3.55281 0.527718 -1.49475
thorax -2.79078 0.288664 -1.74885
lowerneck -6.26237 12.6522 13.0841
upperneck 1.22005 17.0735 -19.2664
head 4.26666 8.13984 -6.71717
rclavicle -1.41758e-014 1.64494e-014
rhumerus -69.4883 2.89558 -89.9888
rradius 56.8038
rwrist -35.8432
rhand -39.5233 1.64313
rfingers 7.12502
rthumb -12.5082 -27.9625
lclavicle -1.41758e-014 1.64494e-014
lhumerus -39.2255 -23.1002 79.0536
lradius 70.4464
lwrist 11.3152
lhand -25.2822 17.7816
lfingers 7.12502
lthumb 1.23906 47.7578
rfemur -20.5467 9.55812 18.9583
rtibia 40.1224
rfoot -12.9905 -20.9072
rtoes -15.2073
lfemur -9.93224 -17.7068 -25.9546
ltibia 31.6828
lfoot -5.8419 8.94782
ltoes -16.3428
198
root 9.57031 18.2383 0.189123 178.379 -221.478 -176.54
lowerback 11.7496 0.348886 0.249769
upperback 3.7194 0.495887 -1.72487
thorax -2.68093 0.279987 -2.00375
lowerneck -6.80178 12.0526 12.3077
upperneck 1.71297 16.1548 -17.4987
head 4.11432 7.68444 -6.14097
rclavicle 1.0635e-014 1.68967e-015
rhumerus -70.22 2.45915 -90.6192
rradius 56.1177
rwrist -36.3419
rhand -38.8599 -0.674135
rfingers 7.12502
rthumb -11.8685 -30.3178
lclavicle 1.0635e-014 1.68967e-015
lhumerus -39.3411 -23.4981 78.0658
lradius 72.6008
lwrist 10.7332
lhand -24.7874 17.857
lfingers 7.12502
lthumb 1.71688 47.8298
rfemur -19.9113 10.6894 18.9842
rtibia 39.0335
rfoot -10.0746 -22.0023
rtoes -20.67
lfemur -9.60868 -17.4036 -24.5462
ltibia 31.5996
lfoot -6.58098 10.0739
ltoes -17.244
